<svg width="84" height="54" viewBox="0 0 84 54" fill="none" xmlns="http://www.w3.org/2000/svg">
<g clip-path="url(#clip0_4064_377)">
<rect width="84" height="54" fill="#BCBCBC"/>
<path d="M21.7365 33.1591C20.9562 33.1591 20.2668 33.0208 19.6683 32.7443C19.0736 32.464 18.6096 32.0795 18.2763 31.5909C17.9429 31.0985 17.7782 30.5379 17.782 29.9091C17.7782 29.4167 17.8748 28.9621 18.0717 28.5455C18.2687 28.125 18.5376 27.7746 18.8786 27.4943C19.2232 27.2102 19.6077 27.0303 20.032 26.9545V26.8864C19.4751 26.7424 19.032 26.4299 18.7024 25.9489C18.3729 25.464 18.21 24.9129 18.2138 24.2955C18.21 23.7045 18.3596 23.1761 18.6626 22.7102C18.9657 22.2443 19.3823 21.8769 19.9126 21.608C20.4467 21.339 21.0547 21.2045 21.7365 21.2045C22.4107 21.2045 23.013 21.339 23.5433 21.608C24.0736 21.8769 24.4903 22.2443 24.7933 22.7102C25.1001 23.1761 25.2554 23.7045 25.2592 24.2955C25.2554 24.9129 25.0869 25.464 24.7536 25.9489C24.424 26.4299 23.9865 26.7424 23.4411 26.8864V26.9545C23.8615 27.0303 24.2403 27.2102 24.5774 27.4943C24.9145 27.7746 25.1835 28.125 25.3842 28.5455C25.585 28.9621 25.6873 29.4167 25.6911 29.9091C25.6873 30.5379 25.5168 31.0985 25.1797 31.5909C24.8464 32.0795 24.3823 32.464 23.7876 32.7443C23.1967 33.0208 22.513 33.1591 21.7365 33.1591ZM21.7365 31.9091C22.263 31.9091 22.7176 31.8239 23.1001 31.6534C23.4827 31.483 23.7782 31.2424 23.9865 30.9318C24.1948 30.6212 24.3009 30.2576 24.3047 29.8409C24.3009 29.4015 24.1873 29.0133 23.9638 28.6761C23.7403 28.339 23.4354 28.0739 23.049 27.8807C22.6664 27.6875 22.2289 27.5909 21.7365 27.5909C21.2403 27.5909 20.7971 27.6875 20.407 27.8807C20.0206 28.0739 19.7157 28.339 19.4922 28.6761C19.2725 29.0133 19.1645 29.4015 19.1683 29.8409C19.1645 30.2576 19.2649 30.6212 19.4695 30.9318C19.6778 31.2424 19.9751 31.483 20.3615 31.6534C20.7479 31.8239 21.2062 31.9091 21.7365 31.9091ZM21.7365 26.3864C22.1532 26.3864 22.5225 26.303 22.8445 26.1364C23.1702 25.9697 23.4259 25.7367 23.6115 25.4375C23.7971 25.1383 23.8918 24.7879 23.8956 24.3864C23.8918 23.9924 23.799 23.6496 23.6172 23.358C23.4354 23.0625 23.1835 22.8352 22.8615 22.6761C22.5395 22.5133 22.1645 22.4318 21.7365 22.4318C21.3009 22.4318 20.9202 22.5133 20.5945 22.6761C20.2687 22.8352 20.0168 23.0625 19.8388 23.358C19.6607 23.6496 19.5736 23.9924 19.5774 24.3864C19.5736 24.7879 19.6626 25.1383 19.8445 25.4375C20.0301 25.7367 20.2857 25.9697 20.6115 26.1364C20.9373 26.303 21.3123 26.3864 21.7365 26.3864ZM27.5959 30.6136V29.4545L32.7095 21.3636H33.5504V23.1591H32.9822L29.1186 29.2727V29.3636H36.005V30.6136H27.5959ZM33.0732 33V30.2614V29.7216V21.3636H34.4141V33H33.0732ZM39.0206 21.3636L42.0206 26.2045H42.1115L45.1115 21.3636H46.7706L43.1115 27.1818L46.7706 33H45.1115L42.1115 28.25H42.0206L39.0206 33H37.3615L41.1115 27.1818L37.3615 21.3636H39.0206ZM52.0362 33.1591C51.3696 33.1591 50.7692 33.0265 50.2351 32.7614C49.701 32.4962 49.273 32.1326 48.951 31.6705C48.629 31.2083 48.4529 30.6818 48.4226 30.0909H49.7862C49.8393 30.6174 50.0779 31.053 50.5021 31.3977C50.9302 31.7386 51.4415 31.9091 52.0362 31.9091C52.5135 31.9091 52.9377 31.7973 53.3089 31.5739C53.6839 31.3504 53.9775 31.0436 54.1896 30.6534C54.4055 30.2595 54.5135 29.8144 54.5135 29.3182C54.5135 28.8106 54.4018 28.358 54.1783 27.9602C53.9586 27.5587 53.6555 27.2424 53.2692 27.0114C52.8828 26.7803 52.4415 26.6629 51.9453 26.6591C51.5893 26.6553 51.2237 26.7102 50.8487 26.8239C50.4737 26.9337 50.165 27.0758 49.9226 27.25L48.6044 27.0909L49.3089 21.3636H55.3544V22.6136H50.4908L50.0817 26.0455H50.1499C50.3885 25.8561 50.6877 25.6989 51.0476 25.5739C51.4074 25.4489 51.7824 25.3864 52.1726 25.3864C52.8847 25.3864 53.5192 25.5568 54.076 25.8977C54.6366 26.2348 55.076 26.697 55.3942 27.2841C55.7161 27.8712 55.8771 28.5417 55.8771 29.2955C55.8771 30.0379 55.7105 30.7008 55.3771 31.2841C55.0476 31.8636 54.593 32.322 54.0135 32.6591C53.4339 32.9924 52.7749 33.1591 52.0362 33.1591ZM57.8615 30.6136V29.4545L62.9751 21.3636H63.8161V23.1591H63.2479L59.3842 29.2727V29.3636H66.2706V30.6136H57.8615ZM63.3388 33V30.2614V29.7216V21.3636H64.6797V33H63.3388Z" fill="black"/>
</g>
<defs>
<clipPath id="clip0_4064_377">
<rect width="84" height="54" fill="white"/>
</clipPath>
</defs>
</svg>
