<svg width="118" height="38" viewBox="0 0 118 38" fill="none" xmlns="http://www.w3.org/2000/svg">
<rect width="118" height="38" fill="#BCBCBC"/>
<path d="M36.772 12.3636V24H35.3629V13.8409H35.2947L32.4538 15.7273V14.2955L35.3629 12.3636H36.772ZM44.2095 12.3636V24H42.8004V13.8409H42.7322L39.8913 15.7273V14.2955L42.8004 12.3636H44.2095ZM51.2834 24.1591C50.5031 24.1591 49.8137 24.0208 49.2152 23.7443C48.6205 23.464 48.1565 23.0795 47.8232 22.5909C47.4898 22.0985 47.325 21.5379 47.3288 20.9091C47.325 20.4167 47.4216 19.9621 47.6186 19.5455C47.8156 19.125 48.0845 18.7746 48.4254 18.4943C48.7701 18.2102 49.1546 18.0303 49.5788 17.9545V17.8864C49.022 17.7424 48.5788 17.4299 48.2493 16.9489C47.9197 16.464 47.7569 15.9129 47.7607 15.2955C47.7569 14.7045 47.9065 14.1761 48.2095 13.7102C48.5125 13.2443 48.9292 12.8769 49.4595 12.608C49.9936 12.339 50.6016 12.2045 51.2834 12.2045C51.9576 12.2045 52.5599 12.339 53.0902 12.608C53.6205 12.8769 54.0372 13.2443 54.3402 13.7102C54.647 14.1761 54.8023 14.7045 54.8061 15.2955C54.8023 15.9129 54.6338 16.464 54.3004 16.9489C53.9709 17.4299 53.5334 17.7424 52.9879 17.8864V17.9545C53.4084 18.0303 53.7872 18.2102 54.1243 18.4943C54.4614 18.7746 54.7304 19.125 54.9311 19.5455C55.1319 19.9621 55.2341 20.4167 55.2379 20.9091C55.2341 21.5379 55.0637 22.0985 54.7266 22.5909C54.3932 23.0795 53.9292 23.464 53.3345 23.7443C52.7436 24.0208 52.0599 24.1591 51.2834 24.1591ZM51.2834 22.9091C51.8099 22.9091 52.2644 22.8239 52.647 22.6534C53.0296 22.483 53.325 22.2424 53.5334 21.9318C53.7417 21.6212 53.8478 21.2576 53.8516 20.8409C53.8478 20.4015 53.7341 20.0133 53.5107 19.6761C53.2872 19.339 52.9822 19.0739 52.5959 18.8807C52.2133 18.6875 51.7758 18.5909 51.2834 18.5909C50.7872 18.5909 50.344 18.6875 49.9538 18.8807C49.5675 19.0739 49.2625 19.339 49.0391 19.6761C48.8194 20.0133 48.7114 20.4015 48.7152 20.8409C48.7114 21.2576 48.8118 21.6212 49.0163 21.9318C49.2247 22.2424 49.522 22.483 49.9084 22.6534C50.2947 22.8239 50.7531 22.9091 51.2834 22.9091ZM51.2834 17.3864C51.7 17.3864 52.0694 17.303 52.3913 17.1364C52.7171 16.9697 52.9728 16.7367 53.1584 16.4375C53.344 16.1383 53.4387 15.7879 53.4425 15.3864C53.4387 14.9924 53.3459 14.6496 53.1641 14.358C52.9822 14.0625 52.7304 13.8352 52.4084 13.6761C52.0864 13.5133 51.7114 13.4318 51.2834 13.4318C50.8478 13.4318 50.4671 13.5133 50.1413 13.6761C49.8156 13.8352 49.5637 14.0625 49.3857 14.358C49.2076 14.6496 49.1205 14.9924 49.1243 15.3864C49.1205 15.7879 49.2095 16.1383 49.3913 16.4375C49.5769 16.7367 49.8326 16.9697 50.1584 17.1364C50.4841 17.303 50.8591 17.3864 51.2834 17.3864ZM58.3018 12.3636L61.3018 17.2045H61.3928L64.3928 12.3636H66.0518L62.3928 18.1818L66.0518 24H64.3928L61.3928 19.25H61.3018L58.3018 24H56.6428L60.3928 18.1818L56.6428 12.3636H58.3018ZM71.6129 24.1591C70.8629 24.1591 70.1944 24.0303 69.6072 23.7727C69.0239 23.5152 68.5599 23.1572 68.2152 22.6989C67.8743 22.2367 67.6887 21.7008 67.6584 21.0909H69.0902C69.1205 21.4659 69.2493 21.7898 69.4766 22.0625C69.7038 22.3314 70.0012 22.5398 70.3686 22.6875C70.736 22.8352 71.1432 22.9091 71.5902 22.9091C72.0902 22.9091 72.5334 22.822 72.9197 22.6477C73.3061 22.4735 73.6091 22.2311 73.8288 21.9205C74.0485 21.6098 74.1584 21.25 74.1584 20.8409C74.1584 20.4129 74.0523 20.036 73.8402 19.7102C73.6281 19.3807 73.3175 19.1231 72.9084 18.9375C72.4993 18.7519 71.9993 18.6591 71.4084 18.6591H70.4766V17.4091H71.4084C71.8705 17.4091 72.2758 17.3258 72.6243 17.1591C72.9766 16.9924 73.2512 16.7576 73.4482 16.4545C73.6489 16.1515 73.7493 15.7955 73.7493 15.3864C73.7493 14.9924 73.6622 14.6496 73.4879 14.358C73.3137 14.0663 73.0675 13.839 72.7493 13.6761C72.4349 13.5133 72.0637 13.4318 71.6357 13.4318C71.2341 13.4318 70.8554 13.5057 70.4993 13.6534C70.147 13.7973 69.8591 14.0076 69.6357 14.2841C69.4122 14.5568 69.291 14.8864 69.272 15.2727H67.9084C67.9311 14.6629 68.1148 14.1288 68.4595 13.6705C68.8042 13.2083 69.255 12.8485 69.8118 12.5909C70.3724 12.3333 70.9879 12.2045 71.6584 12.2045C72.3781 12.2045 72.9955 12.3504 73.5107 12.642C74.0258 12.9299 74.4216 13.3106 74.6982 13.7841C74.9747 14.2576 75.1129 14.7689 75.1129 15.3182C75.1129 15.9735 74.9406 16.5322 74.5959 16.9943C74.255 17.4564 73.791 17.7765 73.2038 17.9545V18.0455C73.9387 18.1667 74.5125 18.4792 74.9254 18.983C75.3383 19.483 75.5447 20.1023 75.5447 20.8409C75.5447 21.4735 75.3724 22.0417 75.0277 22.5455C74.6868 23.0455 74.2209 23.4394 73.63 23.7273C73.0391 24.0152 72.3667 24.1591 71.6129 24.1591ZM81.5959 24.1591C80.8156 24.1591 80.1262 24.0208 79.5277 23.7443C78.933 23.464 78.469 23.0795 78.1357 22.5909C77.8023 22.0985 77.6375 21.5379 77.6413 20.9091C77.6375 20.4167 77.7341 19.9621 77.9311 19.5455C78.1281 19.125 78.397 18.7746 78.7379 18.4943C79.0826 18.2102 79.4671 18.0303 79.8913 17.9545V17.8864C79.3345 17.7424 78.8913 17.4299 78.5618 16.9489C78.2322 16.464 78.0694 15.9129 78.0732 15.2955C78.0694 14.7045 78.219 14.1761 78.522 13.7102C78.825 13.2443 79.2417 12.8769 79.772 12.608C80.3061 12.339 80.9141 12.2045 81.5959 12.2045C82.2701 12.2045 82.8724 12.339 83.4027 12.608C83.933 12.8769 84.3497 13.2443 84.6527 13.7102C84.9595 14.1761 85.1148 14.7045 85.1186 15.2955C85.1148 15.9129 84.9463 16.464 84.6129 16.9489C84.2834 17.4299 83.8459 17.7424 83.3004 17.8864V17.9545C83.7209 18.0303 84.0997 18.2102 84.4368 18.4943C84.7739 18.7746 85.0429 19.125 85.2436 19.5455C85.4444 19.9621 85.5466 20.4167 85.5504 20.9091C85.5466 21.5379 85.3762 22.0985 85.0391 22.5909C84.7057 23.0795 84.2417 23.464 83.647 23.7443C83.0561 24.0208 82.3724 24.1591 81.5959 24.1591ZM81.5959 22.9091C82.1224 22.9091 82.5769 22.8239 82.9595 22.6534C83.3421 22.483 83.6375 22.2424 83.8459 21.9318C84.0542 21.6212 84.1603 21.2576 84.1641 20.8409C84.1603 20.4015 84.0466 20.0133 83.8232 19.6761C83.5997 19.339 83.2947 19.0739 82.9084 18.8807C82.5258 18.6875 82.0883 18.5909 81.5959 18.5909C81.0997 18.5909 80.6565 18.6875 80.2663 18.8807C79.88 19.0739 79.575 19.339 79.3516 19.6761C79.1319 20.0133 79.0239 20.4015 79.0277 20.8409C79.0239 21.2576 79.1243 21.6212 79.3288 21.9318C79.5372 22.2424 79.8345 22.483 80.2209 22.6534C80.6072 22.8239 81.0656 22.9091 81.5959 22.9091ZM81.5959 17.3864C82.0125 17.3864 82.3819 17.303 82.7038 17.1364C83.0296 16.9697 83.2853 16.7367 83.4709 16.4375C83.6565 16.1383 83.7512 15.7879 83.755 15.3864C83.7512 14.9924 83.6584 14.6496 83.4766 14.358C83.2947 14.0625 83.0429 13.8352 82.7209 13.6761C82.3989 13.5133 82.0239 13.4318 81.5959 13.4318C81.1603 13.4318 80.7796 13.5133 80.4538 13.6761C80.1281 13.8352 79.8762 14.0625 79.6982 14.358C79.5201 14.6496 79.433 14.9924 79.4368 15.3864C79.433 15.7879 79.522 16.1383 79.7038 16.4375C79.8894 16.7367 80.1451 16.9697 80.4709 17.1364C80.7966 17.303 81.1716 17.3864 81.5959 17.3864Z" fill="black"/>
</svg>
