<svg width="114" height="32" viewBox="0 0 114 32" fill="none" xmlns="http://www.w3.org/2000/svg">
<path fill-rule="evenodd" clip-rule="evenodd" d="M0.655246 20.5705L14.5776 32L28.5 20.5705C27.8985 18.7254 26.8888 17.1712 25.5997 15.9082C26.8234 14.658 27.7775 13.135 28.3439 11.3397L14.3096 0L0.5 11.5185C1.1077 13.3244 2.10659 14.8478 3.37463 16.0893C2.17188 17.3188 1.22829 18.8126 0.655246 20.5705ZM25.5997 15.9082C20.0713 21.5557 9.03828 21.6343 3.37463 16.0893C8.9125 10.4279 19.9447 10.3676 25.5997 15.9082Z" fill="white"/>
<path d="M49.26 8.068H50.772C51.044 8.068 51.18 8.196 51.18 8.452V19.78C51.18 20.948 50.852 21.86 50.196 22.516C49.54 23.172 48.628 23.5 47.46 23.5H45.06C43.876 23.5 42.956 23.172 42.3 22.516C41.644 21.86 41.316 20.948 41.316 19.78V17.62C41.316 17.348 41.46 17.212 41.748 17.212H43.26C43.532 17.212 43.668 17.348 43.668 17.62V19.684C43.668 20.868 44.244 21.46 45.396 21.46H47.1C48.252 21.46 48.828 20.868 48.828 19.684V8.476C48.828 8.204 48.972 8.068 49.26 8.068ZM58.7327 23.5H57.7967C56.6127 23.5 55.6927 23.172 55.0367 22.516C54.3967 21.86 54.0767 20.948 54.0767 19.78V14.98C54.0767 13.796 54.3967 12.884 55.0367 12.244C55.6927 11.588 56.6127 11.26 57.7967 11.26H63.1727C63.4607 11.26 63.6047 11.396 63.6047 11.668V23.092C63.6047 23.364 63.4607 23.5 63.1727 23.5H61.6607C61.3887 23.5 61.2527 23.364 61.2527 23.092V22.228H61.1567C60.7727 23.076 59.9647 23.5 58.7327 23.5ZM61.2527 19.42V13.54C61.2527 13.38 61.1647 13.3 60.9887 13.3H58.1327C56.9807 13.3 56.4047 13.892 56.4047 15.076V19.684C56.4047 20.868 56.9807 21.46 58.1327 21.46H59.2847C60.5967 21.46 61.2527 20.78 61.2527 19.42ZM68.0379 27.388H66.7659C66.4939 27.388 66.3579 27.252 66.3579 26.98V25.756C66.3579 25.468 66.4939 25.324 66.7659 25.324H67.3179C68.2939 25.324 68.9659 25.132 69.3339 24.748C69.7179 24.364 70.0379 23.732 70.2939 22.852H69.3339C69.0939 22.852 68.9259 22.716 68.8299 22.444L65.6379 11.668C65.5739 11.396 65.6779 11.26 65.9499 11.26H67.5579C67.8139 11.26 67.9739 11.396 68.0379 11.668L70.6539 21.076H70.7499L73.3659 11.668C73.4139 11.396 73.5739 11.26 73.8459 11.26H75.3819C75.6859 11.26 75.8139 11.404 75.7659 11.692L72.4779 23.236C72.1099 24.58 71.5899 25.604 70.9179 26.308C70.2459 27.028 69.2859 27.388 68.0379 27.388ZM82.3611 23.5H81.1371C79.9851 23.5 79.0971 23.18 78.4731 22.54C77.8651 21.884 77.5611 20.964 77.5611 19.78V14.98C77.5611 13.78 77.8651 12.86 78.4731 12.22C79.0971 11.58 79.9851 11.26 81.1371 11.26H82.3611C83.5931 11.26 84.3931 11.684 84.7611 12.532H84.8571V7.036C84.8571 6.764 84.9931 6.628 85.2651 6.628H86.8011C87.0731 6.628 87.2091 6.764 87.2091 7.036V23.092C87.2091 23.364 87.0731 23.5 86.8011 23.5H85.2651C84.9931 23.5 84.8571 23.364 84.8571 23.092V22.228H84.7611C84.3931 23.076 83.5931 23.5 82.3611 23.5ZM84.8571 19.42V15.34C84.8571 13.98 84.2011 13.3 82.8891 13.3H81.6171C80.4651 13.3 79.8891 13.892 79.8891 15.076V19.684C79.8891 20.868 80.4651 21.46 81.6171 21.46H82.8891C84.2011 21.46 84.8571 20.78 84.8571 19.42ZM98.8869 23.5H93.7029C92.5189 23.5 91.5989 23.172 90.9429 22.516C90.3029 21.86 89.9829 20.948 89.9829 19.78V14.98C89.9829 13.796 90.3029 12.884 90.9429 12.244C91.5989 11.588 92.5189 11.26 93.7029 11.26H95.6709C96.8549 11.26 97.7749 11.588 98.4309 12.244C99.0869 12.884 99.4149 13.796 99.4149 14.98V18.028C99.4149 18.316 99.2709 18.46 98.9829 18.46H92.5509C92.3749 18.46 92.2869 18.54 92.2869 18.7V19.732C92.2869 20.9 92.8709 21.484 94.0389 21.484H98.8869C99.1749 21.484 99.3189 21.628 99.3189 21.916V23.116C99.3189 23.372 99.1749 23.5 98.8869 23.5ZM92.5509 16.828H96.8469C97.0069 16.828 97.0869 16.748 97.0869 16.588V15.052C97.0869 14.444 96.9509 14.004 96.6789 13.732C96.4069 13.444 95.9669 13.3 95.3589 13.3H94.0389C93.4309 13.3 92.9909 13.444 92.7189 13.732C92.4469 14.004 92.3109 14.444 92.3109 15.052V16.588C92.3109 16.748 92.3909 16.828 92.5509 16.828ZM103.979 23.5H102.467C102.195 23.5 102.059 23.364 102.059 23.092V11.668C102.059 11.396 102.195 11.26 102.467 11.26H103.979C104.251 11.26 104.387 11.396 104.387 11.668V12.532H104.483C104.867 11.684 105.675 11.26 106.907 11.26H107.963C109.131 11.26 110.027 11.58 110.651 12.22C111.275 12.86 111.587 13.78 111.587 14.98V23.092C111.587 23.364 111.443 23.5 111.155 23.5H109.643C109.371 23.5 109.235 23.364 109.235 23.092V15.076C109.235 13.892 108.651 13.3 107.483 13.3H106.355C105.043 13.3 104.387 13.98 104.387 15.34V23.092C104.387 23.364 104.251 23.5 103.979 23.5Z" fill="white"/>
</svg>
